<svg width="11" height="11" viewBox="0 0 11 11" fill="none" xmlns="http://www.w3.org/2000/svg">
<path d="M7.80824 1.96442C7.48325 1.96442 7.22791 2.22389 7.22791 2.54678C7.22791 2.86967 7.48906 3.12914 7.80824 3.12914C8.13323 3.12914 8.39438 2.86967 8.39438 2.54678C8.38858 2.22389 8.12743 1.96442 7.80824 1.96442Z" fill="#141615"/>
<path d="M5.21404 2.70822C3.86185 2.70822 2.76501 3.79799 2.76501 5.14146C2.76501 6.48493 3.86185 7.5747 5.21404 7.5747C6.56623 7.5747 7.66307 6.48493 7.66307 5.14146C7.66307 3.79799 6.56623 2.70822 5.21404 2.70822ZM5.21404 6.69827C4.34934 6.69827 3.64713 6.00059 3.64713 5.14146C3.64713 4.28233 4.34934 3.58465 5.21404 3.58465C6.07875 3.58465 6.78096 4.28233 6.78096 5.14146C6.78096 6.00059 6.07875 6.69827 5.21404 6.69827Z" fill="#141615"/>
<path d="M7.1582 10.0829H3.18869C1.54053 10.0829 0.199951 8.75094 0.199951 7.11341V3.16948C0.199951 1.53195 1.54053 0.200012 3.18869 0.200012H7.1582C8.80636 0.200012 10.1469 1.53195 10.1469 3.16948V7.11341C10.1469 8.75094 8.80636 10.0829 7.1582 10.0829ZM3.18869 1.12833C2.05703 1.12833 1.1343 2.04512 1.1343 3.16948V7.11341C1.1343 8.23777 2.05703 9.15456 3.18869 9.15456H7.1582C8.28986 9.15456 9.2126 8.23777 9.2126 7.11341V3.16948C9.2126 2.04512 8.28986 1.12833 7.1582 1.12833H3.18869Z" fill="#141615"/>
</svg>
