<svg width="11" height="9" viewBox="0 0 11 9" fill="none" xmlns="http://www.w3.org/2000/svg">
<path fill-rule="evenodd" clip-rule="evenodd" d="M0.755854 3.87472C3.70855 2.60468 5.67759 1.76732 6.66297 1.36263C9.47653 0.207052 10.0605 0.00611858 10.4419 0.000183848C10.5819 -0.0030957 10.7193 0.0375742 10.8344 0.116335C10.9149 0.185636 10.9663 0.282062 10.9786 0.38679C10.9992 0.517167 11.0049 0.649391 10.9958 0.781026C10.843 2.36221 10.1834 6.19944 9.84755 7.96969C9.70584 8.71916 9.42672 8.97096 9.15533 8.99555C8.56702 9.04896 8.12042 8.61149 7.55101 8.24268C6.65953 7.66617 6.15539 7.31008 5.29054 6.74374C4.28999 6.09346 4.93841 5.73568 5.50868 5.15153C5.65812 4.99808 8.24925 2.67081 8.29992 2.45971C8.30642 2.42871 8.30554 2.39665 8.29734 2.36604C8.28914 2.33544 8.27386 2.30713 8.25268 2.28336C8.22191 2.26376 8.18684 2.25168 8.1504 2.24814C8.11395 2.24461 8.07718 2.2497 8.04313 2.26301C7.95381 2.28336 6.52956 3.21257 3.77039 5.05064C3.36559 5.32534 2.99943 5.45901 2.67193 5.45166C2.3095 5.44403 1.61384 5.24988 1.09682 5.08371C0.462992 4.88023 -0.0411476 4.77256 0.00265334 4.42665C0.0249832 4.24578 0.276048 4.0618 0.755854 3.87472Z" fill="#141615"/>
</svg>
