<svg width="11" height="12" viewBox="0 0 11 12" fill="none" xmlns="http://www.w3.org/2000/svg">
<path d="M9.75823 1.13104C9.47327 0.865076 8.30494 0.0197003 5.71086 0.00830192C5.71086 0.00830192 2.65135 -0.175972 1.16007 1.19183C0.32989 2.02201 0.0382818 3.23689 0.00693635 4.74337C-0.0244091 6.24985 -0.0633539 9.07569 2.658 9.83558V11.0039C2.658 11.0039 2.63996 11.4788 2.95151 11.5738C3.33146 11.6907 3.54898 11.3316 3.90897 10.9441C4.10654 10.7313 4.3839 10.4188 4.58433 10.1842C6.44511 10.3409 7.87655 9.98281 8.03898 9.92962C8.41892 9.80804 10.5409 9.53543 10.8886 6.71338C11.2448 3.8011 10.7147 1.96027 9.75823 1.13104ZM10.0736 6.50156C9.78198 8.85817 8.05703 9.00635 7.73882 9.10799C6.76687 9.34574 5.76388 9.43098 4.76575 9.36065C4.76575 9.36065 3.58792 10.7854 3.22032 11.1511C3.19976 11.1757 3.17353 11.1948 3.1439 11.2069C3.11427 11.219 3.08214 11.2236 3.0503 11.2205C2.98666 11.2053 2.96956 11.1302 2.96956 11.021C2.96956 10.8643 2.98001 9.07949 2.98001 9.07949C0.678489 8.44024 0.81242 6.03993 0.839016 4.77946C0.865612 3.51899 1.10118 2.49124 1.80313 1.79784C3.06454 0.658008 5.66337 0.826133 5.66337 0.826133C7.85755 0.835631 8.90905 1.49674 9.15317 1.71806C9.96245 2.41051 10.3747 4.06992 10.0736 6.49967V6.50156Z" fill="#141615"/>
<path d="M6.77845 4.82411C6.74078 4.82415 6.70455 4.80966 6.6773 4.78365C6.65005 4.75763 6.63388 4.72211 6.63217 4.68448C6.60747 4.1858 6.37286 3.94264 5.89413 3.91699C5.85533 3.91498 5.81893 3.89763 5.79292 3.86878C5.76691 3.83992 5.75343 3.80191 5.75545 3.76312C5.75746 3.72432 5.77481 3.68791 5.80366 3.66191C5.83252 3.6359 5.87053 3.62242 5.90932 3.62443C6.54193 3.65768 6.89338 4.01863 6.92568 4.66928C6.92749 4.70818 6.91381 4.74622 6.88764 4.77506C6.86147 4.8039 6.82494 4.8212 6.78605 4.82316L6.77845 4.82411Z" fill="#141615"/>
<path d="M7.53083 5.07676C7.49186 5.07576 7.45485 5.05945 7.42783 5.03136C7.4008 5.00327 7.38593 4.96566 7.38645 4.92668C7.40013 4.70099 7.36843 4.47484 7.29321 4.2616C7.218 4.04837 7.10081 3.85238 6.94856 3.68521C6.64365 3.35181 6.22571 3.17038 5.67099 3.12954C5.6322 3.12677 5.59609 3.1087 5.57062 3.07931C5.54515 3.04991 5.53239 3.01161 5.53516 2.97281C5.53793 2.93402 5.556 2.89791 5.5854 2.87244C5.61479 2.84696 5.65309 2.83421 5.69189 2.83698C6.3169 2.88258 6.81178 3.10104 7.16513 3.48669C7.34182 3.68214 7.47824 3.91052 7.56658 4.15875C7.65492 4.40698 7.69344 4.67019 7.67995 4.93333C7.67958 4.95254 7.67543 4.97149 7.66774 4.98909C7.66004 5.0067 7.64895 5.02262 7.6351 5.03594C7.62125 5.04926 7.60492 5.05972 7.58702 5.06672C7.56913 5.07373 7.55004 5.07714 7.53083 5.07676Z" fill="#141615"/>
<path d="M8.30204 5.37789C8.28287 5.37801 8.26387 5.37435 8.24613 5.3671C8.22839 5.35985 8.21226 5.34917 8.19866 5.33566C8.18506 5.32215 8.17427 5.30609 8.16691 5.28839C8.15955 5.2707 8.15576 5.25172 8.15576 5.23256C8.14911 4.34729 7.88315 3.64249 7.36642 3.13811C7.10878 2.88785 6.80417 2.69103 6.47015 2.55899C6.13612 2.42694 5.77927 2.36228 5.42015 2.36872C5.39989 2.37035 5.37951 2.36777 5.36029 2.36114C5.34107 2.3545 5.32344 2.34396 5.3085 2.33017C5.29355 2.31639 5.28163 2.29965 5.27348 2.28103C5.26532 2.26241 5.26111 2.2423 5.26111 2.22197C5.26111 2.20164 5.26532 2.18153 5.27348 2.16291C5.28163 2.14428 5.29355 2.12755 5.3085 2.11376C5.32344 2.09998 5.34107 2.08943 5.36029 2.0828C5.37951 2.07616 5.39989 2.07358 5.42015 2.07521C6.27503 2.08186 6.99503 2.36872 7.56874 2.93009C8.14246 3.49146 8.43977 4.2656 8.44737 5.23161C8.44749 5.25094 8.44381 5.27011 8.43652 5.28802C8.42924 5.30593 8.4185 5.32224 8.40492 5.336C8.39133 5.34976 8.37517 5.3607 8.35736 5.36822C8.33954 5.37573 8.32042 5.37966 8.30109 5.37979L8.30204 5.37789Z" fill="#141615"/>
<path fill-rule="evenodd" clip-rule="evenodd" d="M7.73241 6.69838C7.69821 6.64044 7.60513 6.60339 7.46645 6.53595C7.32777 6.46851 6.64482 6.13036 6.51658 6.08477C6.38835 6.03917 6.29716 6.01448 6.20408 6.15411C6.11099 6.29374 5.84598 6.60529 5.76429 6.69838C5.68261 6.79147 5.60281 6.80286 5.46413 6.73352C5.05485 6.56971 4.67694 6.33641 4.34709 6.04392C4.04355 5.76311 3.78331 5.43885 3.57486 5.08171C3.49412 4.94303 3.56631 4.86799 3.63565 4.79675C3.70499 4.72551 3.77433 4.63433 3.84367 4.55359C3.9007 4.48333 3.9474 4.40529 3.98235 4.32182C4.001 4.28359 4.00972 4.24128 4.00773 4.19878C4.00574 4.15629 3.99309 4.11498 3.97095 4.07866C3.93676 4.00932 3.65845 3.32542 3.54351 3.04711C3.42858 2.7688 3.31554 2.81344 3.23101 2.80869C3.14647 2.80394 3.05718 2.80869 2.96409 2.80869C2.89553 2.8115 2.82824 2.82808 2.76623 2.85746C2.70421 2.88683 2.64875 2.92839 2.60315 2.97967C2.44609 3.12849 2.32174 3.30839 2.23802 3.5079C2.15429 3.70741 2.11301 3.92216 2.11682 4.1385C2.11682 4.82145 2.61455 5.48161 2.68674 5.57469C2.75893 5.66778 3.66604 7.06978 5.06139 7.67104C5.31995 7.78285 5.5844 7.88052 5.85358 7.9636C6.13651 8.05025 6.43587 8.06912 6.72745 8.01869C6.99436 7.9788 7.54908 7.68339 7.66497 7.35379C7.78085 7.02418 7.77135 6.75632 7.73241 6.69838Z" fill="#141615"/>
</svg>
