<svg width="11" height="11" viewBox="0 0 11 11" fill="none" xmlns="http://www.w3.org/2000/svg">
<path d="M0 10.5502L0.741834 7.84022C0.167229 6.84293 -0.062313 5.68393 0.0887995 4.54292C0.239912 3.4019 0.763236 2.34261 1.57763 1.52927C2.39203 0.71594 3.45201 0.194002 4.59322 0.044381C5.73443 -0.10524 6.89313 0.125815 7.88967 0.701723C8.8862 1.27763 9.66491 2.16622 10.1051 3.22972C10.5452 4.29322 10.6222 5.47222 10.3241 6.58392C10.026 7.69563 9.36944 8.67794 8.45626 9.37855C7.54308 10.0792 6.42427 10.4589 5.27329 10.459C4.40047 10.4591 3.54155 10.2403 2.77518 9.82262L0 10.5502ZM2.89852 8.87611L3.05761 8.96996C3.7272 9.3669 4.49131 9.57622 5.26971 9.57594C6.23307 9.57576 7.16906 9.25548 7.93057 8.66542C8.69207 8.07536 9.23592 7.24899 9.47663 6.31619C9.71734 5.38339 9.64126 4.39705 9.26036 3.51219C8.87945 2.62733 8.21531 1.89413 7.37233 1.42783C6.52935 0.961532 5.55531 0.788567 4.60332 0.936124C3.65133 1.08368 2.77536 1.5434 2.11309 2.24301C1.45082 2.94262 1.0398 3.84247 0.944636 4.80111C0.84947 5.75976 1.07555 6.72285 1.58735 7.53902L1.69103 7.70347L1.25218 9.3078L2.89852 8.87611Z" fill="#141615"/>
<path fill-rule="evenodd" clip-rule="evenodd" d="M7.90362 6.47362C7.87145 6.4191 7.78386 6.38424 7.65337 6.32078C7.52287 6.25733 6.88025 5.93914 6.75959 5.89624C6.63893 5.85334 6.55312 5.8301 6.46553 5.96148C6.37794 6.09287 6.12858 6.38603 6.05172 6.47362C5.97485 6.56121 5.89977 6.57193 5.76928 6.50669C5.38416 6.35255 5.02857 6.13303 4.7182 5.85781C4.43258 5.59357 4.1877 5.28846 3.99156 4.95241C3.91559 4.82192 3.98352 4.75131 4.04876 4.68428C4.11401 4.61724 4.17925 4.53144 4.2445 4.45547C4.29816 4.38936 4.3421 4.31593 4.37499 4.23739C4.39254 4.20141 4.40075 4.1616 4.39887 4.12161C4.397 4.08163 4.3851 4.04276 4.36427 4.00858C4.33209 3.94334 4.07021 3.29982 3.96207 3.03794C3.85392 2.77606 3.74756 2.81807 3.66801 2.8136C3.58846 2.80913 3.50445 2.8136 3.41686 2.8136C3.35235 2.81624 3.28903 2.83185 3.23067 2.85949C3.17232 2.88713 3.12014 2.92624 3.07723 2.97448C2.92945 3.11452 2.81244 3.28379 2.73365 3.47152C2.65487 3.65925 2.61603 3.86133 2.61961 4.06489C2.61961 4.70752 3.08795 5.32869 3.15588 5.41628C3.22381 5.50387 4.07736 6.82309 5.39032 7.38885C5.63362 7.49406 5.88245 7.58595 6.13573 7.66413C6.40196 7.74566 6.68364 7.76342 6.958 7.71597C7.20916 7.67843 7.73112 7.40047 7.84016 7.09033C7.9492 6.78018 7.94027 6.52814 7.90362 6.47362Z" fill="#141615"/>
</svg>
